<?xml version="1.0" encoding="utf-8"?>
<!-- Generator: Adobe Illustrator 18.1.1, SVG Export Plug-In . SVG Version: 6.00 Build 0)  -->
<svg version="1.1" id="Layer_1" xmlns="http://www.w3.org/2000/svg" xmlns:xlink="http://www.w3.org/1999/xlink" x="0px" y="0px"
	 viewBox="0 0 792 612" enable-background="new 0 0 792 612" xml:space="preserve">
<g>
	<rect x="194" y="105" width="10.9" height="76.3"/>
	<rect x="194" y="192.2" width="10.9" height="10.9"/>
	<rect x="194" y="214" width="10.9" height="10.9"/>
	<rect x="194" y="235.8" width="10.9" height="10.9"/>
	<rect x="194" y="257.6" width="10.9" height="21.8"/>
	<rect x="194" y="290.3" width="10.9" height="10.9"/>
	<rect x="194" y="312.1" width="10.9" height="10.9"/>
	<rect x="194" y="377.5" width="10.9" height="10.9"/>
	<rect x="194" y="410.2" width="10.9" height="10.9"/>
	<rect x="194" y="432" width="10.9" height="76.3"/>
	<rect x="204.9" y="105" width="10.9" height="10.9"/>
	<rect x="204.9" y="170.4" width="10.9" height="10.9"/>
	<rect x="204.9" y="203.1" width="10.9" height="10.9"/>
	<rect x="204.9" y="224.9" width="10.9" height="54.5"/>
	<rect x="204.9" y="301.2" width="10.9" height="87.2"/>
	<rect x="204.9" y="410.2" width="10.9" height="10.9"/>
	<rect x="204.9" y="432" width="10.9" height="10.9"/>
	<rect x="204.9" y="497.4" width="10.9" height="10.9"/>
	<rect x="215.8" y="105" width="10.9" height="10.9"/>
	<rect x="215.8" y="126.8" width="10.9" height="32.7"/>
	<rect x="215.8" y="170.4" width="10.9" height="10.9"/>
	<rect x="215.8" y="203.1" width="10.9" height="21.8"/>
	<rect x="215.8" y="279.4" width="10.9" height="43.6"/>
	<rect x="215.8" y="344.8" width="10.9" height="10.9"/>
	<rect x="215.8" y="377.5" width="10.9" height="21.8"/>
	<rect x="215.8" y="432" width="10.9" height="10.9"/>
	<rect x="215.8" y="453.8" width="10.9" height="32.7"/>
	<rect x="215.8" y="497.4" width="10.9" height="10.9"/>
	<rect x="226.7" y="105" width="10.9" height="10.9"/>
	<rect x="226.7" y="126.8" width="10.9" height="32.7"/>
	<rect x="226.7" y="170.4" width="10.9" height="10.9"/>
	<rect x="226.7" y="203.1" width="10.9" height="10.9"/>
	<rect x="226.7" y="246.7" width="10.9" height="10.9"/>
	<rect x="226.7" y="268.5" width="10.9" height="10.9"/>
	<rect x="226.7" y="290.3" width="10.9" height="43.6"/>
	<rect x="226.7" y="344.8" width="10.9" height="32.7"/>
	<rect x="226.7" y="432" width="10.9" height="10.9"/>
	<rect x="226.7" y="453.8" width="10.9" height="32.7"/>
	<rect x="226.7" y="497.4" width="10.9" height="10.9"/>
	<rect x="237.6" y="105" width="10.9" height="10.9"/>
	<rect x="237.6" y="126.8" width="10.9" height="32.7"/>
	<rect x="237.6" y="170.4" width="10.9" height="10.9"/>
	<rect x="237.6" y="192.2" width="10.9" height="10.9"/>
	<rect x="237.6" y="257.6" width="10.9" height="10.9"/>
	<rect x="237.6" y="290.3" width="10.9" height="10.9"/>
	<rect x="237.6" y="323" width="10.9" height="32.7"/>
	<rect x="237.6" y="377.5" width="10.9" height="10.9"/>
	<rect x="237.6" y="432" width="10.9" height="10.9"/>
	<rect x="237.6" y="453.8" width="10.9" height="32.7"/>
	<rect x="237.6" y="497.4" width="10.9" height="10.9"/>
	<rect x="248.5" y="105" width="10.9" height="10.9"/>
	<rect x="248.5" y="170.4" width="10.9" height="10.9"/>
	<rect x="248.5" y="203.1" width="10.9" height="43.6"/>
	<rect x="248.5" y="268.5" width="10.9" height="10.9"/>
	<rect x="248.5" y="333.9" width="10.9" height="10.9"/>
	<rect x="248.5" y="355.7" width="10.9" height="10.9"/>
	<rect x="248.5" y="410.2" width="10.9" height="10.9"/>
	<rect x="248.5" y="432" width="10.9" height="10.9"/>
	<rect x="248.5" y="497.4" width="10.9" height="10.9"/>
	<rect x="259.4" y="105" width="10.9" height="76.3"/>
	<rect x="259.4" y="192.2" width="10.9" height="10.9"/>
	<rect x="259.4" y="214" width="10.9" height="10.9"/>
	<rect x="259.4" y="235.8" width="10.9" height="10.9"/>
	<rect x="259.4" y="257.6" width="10.9" height="10.9"/>
	<rect x="259.4" y="279.4" width="10.9" height="10.9"/>
	<rect x="259.4" y="301.2" width="10.9" height="10.9"/>
	<rect x="259.4" y="323" width="10.9" height="10.9"/>
	<rect x="259.4" y="344.8" width="10.9" height="10.9"/>
	<rect x="259.4" y="366.6" width="10.9" height="10.9"/>
	<rect x="259.4" y="388.4" width="10.9" height="10.9"/>
	<rect x="259.4" y="410.2" width="10.9" height="10.9"/>
	<rect x="259.4" y="432" width="10.9" height="76.3"/>
	<rect x="270.3" y="192.2" width="10.9" height="54.5"/>
	<rect x="270.3" y="257.6" width="10.9" height="98.1"/>
	<rect x="270.3" y="366.6" width="10.9" height="21.8"/>
	<rect x="270.3" y="399.3" width="10.9" height="10.9"/>
	<rect x="281.2" y="105" width="10.9" height="10.9"/>
	<rect x="281.2" y="137.7" width="10.9" height="76.3"/>
	<rect x="281.2" y="224.9" width="10.9" height="32.7"/>
	<rect x="281.2" y="268.5" width="10.9" height="32.7"/>
	<rect x="281.2" y="312.1" width="10.9" height="32.7"/>
	<rect x="281.2" y="366.6" width="10.9" height="10.9"/>
	<rect x="281.2" y="410.2" width="10.9" height="32.7"/>
	<rect x="281.2" y="453.8" width="10.9" height="10.9"/>
	<rect x="281.2" y="497.4" width="10.9" height="10.9"/>
	<rect x="292.1" y="105" width="10.9" height="10.9"/>
	<rect x="292.1" y="126.8" width="10.9" height="32.7"/>
	<rect x="292.1" y="181.3" width="10.9" height="10.9"/>
	<rect x="292.1" y="214" width="10.9" height="32.7"/>
	<rect x="292.1" y="257.6" width="10.9" height="10.9"/>
	<rect x="292.1" y="366.6" width="10.9" height="10.9"/>
	<rect x="292.1" y="388.4" width="10.9" height="10.9"/>
	<rect x="292.1" y="421.1" width="10.9" height="21.8"/>
	<rect x="292.1" y="453.8" width="10.9" height="10.9"/>
	<rect x="292.1" y="475.6" width="10.9" height="10.9"/>
	<rect x="292.1" y="497.4" width="10.9" height="10.9"/>
	<rect x="303" y="126.8" width="10.9" height="21.8"/>
	<rect x="303" y="170.4" width="10.9" height="10.9"/>
	<rect x="303" y="214" width="10.9" height="10.9"/>
	<rect x="303" y="235.8" width="10.9" height="21.8"/>
	<rect x="303" y="279.4" width="10.9" height="10.9"/>
	<rect x="303" y="312.1" width="10.9" height="21.8"/>
	<rect x="303" y="344.8" width="10.9" height="10.9"/>
	<rect x="303" y="366.6" width="10.9" height="10.9"/>
	<rect x="303" y="388.4" width="10.9" height="10.9"/>
	<rect x="303" y="421.1" width="10.9" height="21.8"/>
	<rect x="303" y="464.7" width="10.9" height="43.6"/>
	<rect x="313.9" y="105" width="10.9" height="10.9"/>
	<rect x="313.9" y="126.8" width="10.9" height="21.8"/>
	<rect x="313.9" y="192.2" width="10.9" height="10.9"/>
	<rect x="313.9" y="214" width="10.9" height="10.9"/>
	<rect x="313.9" y="235.8" width="10.9" height="21.8"/>
	<rect x="313.9" y="268.5" width="10.9" height="10.9"/>
	<rect x="313.9" y="344.8" width="10.9" height="10.9"/>
	<rect x="313.9" y="377.5" width="10.9" height="10.9"/>
	<rect x="313.9" y="432" width="10.9" height="21.8"/>
	<rect x="313.9" y="497.4" width="10.9" height="10.9"/>
	<rect x="324.8" y="105" width="10.9" height="32.7"/>
	<rect x="324.8" y="170.4" width="10.9" height="10.9"/>
	<rect x="324.8" y="203.1" width="10.9" height="10.9"/>
	<rect x="324.8" y="235.8" width="10.9" height="10.9"/>
	<rect x="324.8" y="268.5" width="10.9" height="32.7"/>
	<rect x="324.8" y="323" width="10.9" height="10.9"/>
	<rect x="324.8" y="344.8" width="10.9" height="21.8"/>
	<rect x="324.8" y="388.4" width="10.9" height="21.8"/>
	<rect x="324.8" y="421.1" width="10.9" height="10.9"/>
	<rect x="324.8" y="464.7" width="10.9" height="21.8"/>
	<rect x="324.8" y="497.4" width="10.9" height="10.9"/>
	<rect x="335.7" y="105" width="10.9" height="10.9"/>
	<rect x="335.7" y="126.8" width="10.9" height="21.8"/>
	<rect x="335.7" y="159.5" width="10.9" height="10.9"/>
	<rect x="335.7" y="192.2" width="10.9" height="10.9"/>
	<rect x="335.7" y="214" width="10.9" height="32.7"/>
	<rect x="335.7" y="268.5" width="10.9" height="10.9"/>
	<rect x="335.7" y="323" width="10.9" height="10.9"/>
	<rect x="335.7" y="377.5" width="10.9" height="32.7"/>
	<rect x="335.7" y="421.1" width="10.9" height="32.7"/>
	<rect x="335.7" y="475.6" width="10.9" height="32.7"/>
	<rect x="346.6" y="105" width="10.9" height="10.9"/>
	<rect x="346.6" y="126.8" width="10.9" height="32.7"/>
	<rect x="346.6" y="170.4" width="10.9" height="32.7"/>
	<rect x="346.6" y="214" width="10.9" height="10.9"/>
	<rect x="346.6" y="257.6" width="10.9" height="10.9"/>
	<rect x="346.6" y="279.4" width="10.9" height="21.8"/>
	<rect x="346.6" y="323" width="10.9" height="21.8"/>
	<rect x="346.6" y="366.6" width="10.9" height="21.8"/>
	<rect x="346.6" y="453.8" width="10.9" height="43.6"/>
	<rect x="357.5" y="105" width="10.9" height="10.9"/>
	<rect x="357.5" y="137.7" width="10.9" height="32.7"/>
	<rect x="357.5" y="181.3" width="10.9" height="10.9"/>
	<rect x="357.5" y="235.8" width="10.9" height="43.6"/>
	<rect x="357.5" y="301.2" width="10.9" height="21.8"/>
	<rect x="357.5" y="333.9" width="10.9" height="21.8"/>
	<rect x="357.5" y="410.2" width="10.9" height="32.7"/>
	<rect x="357.5" y="453.8" width="10.9" height="10.9"/>
	<rect x="357.5" y="475.6" width="10.9" height="21.8"/>
	<rect x="368.4" y="105" width="10.9" height="21.8"/>
	<rect x="368.4" y="137.7" width="10.9" height="10.9"/>
	<rect x="368.4" y="170.4" width="10.9" height="21.8"/>
	<rect x="368.4" y="203.1" width="10.9" height="21.8"/>
	<rect x="368.4" y="235.8" width="10.9" height="21.8"/>
	<rect x="368.4" y="279.4" width="10.9" height="10.9"/>
	<rect x="368.4" y="312.1" width="10.9" height="10.9"/>
	<rect x="368.4" y="333.9" width="10.9" height="21.8"/>
	<rect x="368.4" y="377.5" width="10.9" height="21.8"/>
	<rect x="368.4" y="410.2" width="10.9" height="21.8"/>
	<rect x="368.4" y="453.8" width="10.9" height="10.9"/>
	<rect x="368.4" y="486.5" width="10.9" height="10.9"/>
	<rect x="379.3" y="105" width="10.9" height="10.9"/>
	<rect x="379.3" y="126.8" width="10.9" height="10.9"/>
	<rect x="379.3" y="181.3" width="10.9" height="10.9"/>
	<rect x="379.3" y="203.1" width="10.9" height="54.5"/>
	<rect x="379.3" y="290.3" width="10.9" height="10.9"/>
	<rect x="379.3" y="312.1" width="10.9" height="21.8"/>
	<rect x="379.3" y="344.8" width="10.9" height="21.8"/>
	<rect x="379.3" y="377.5" width="10.9" height="54.5"/>
	<rect x="379.3" y="464.7" width="10.9" height="43.6"/>
	<rect x="390.2" y="105" width="10.9" height="10.9"/>
	<rect x="390.2" y="137.7" width="10.9" height="65.4"/>
	<rect x="390.2" y="214" width="10.9" height="21.8"/>
	<rect x="390.2" y="246.7" width="10.9" height="21.8"/>
	<rect x="390.2" y="290.3" width="10.9" height="54.5"/>
	<rect x="390.2" y="355.7" width="10.9" height="21.8"/>
	<rect x="390.2" y="388.4" width="10.9" height="21.8"/>
	<rect x="390.2" y="421.1" width="10.9" height="21.8"/>
	<rect x="390.2" y="464.7" width="10.9" height="21.8"/>
	<rect x="401.1" y="105" width="10.9" height="10.9"/>
	<rect x="401.1" y="126.8" width="10.9" height="21.8"/>
	<rect x="401.1" y="159.5" width="10.9" height="10.9"/>
	<rect x="401.1" y="192.2" width="10.9" height="21.8"/>
	<rect x="401.1" y="235.8" width="10.9" height="10.9"/>
	<rect x="401.1" y="268.5" width="10.9" height="10.9"/>
	<rect x="401.1" y="290.3" width="10.9" height="32.7"/>
	<rect x="401.1" y="366.6" width="10.9" height="21.8"/>
	<rect x="401.1" y="410.2" width="10.9" height="10.9"/>
	<rect x="401.1" y="453.8" width="10.9" height="43.6"/>
	<rect x="412" y="115.9" width="10.9" height="21.8"/>
	<rect x="412" y="170.4" width="10.9" height="21.8"/>
	<rect x="412" y="203.1" width="10.9" height="21.8"/>
	<rect x="412" y="235.8" width="10.9" height="10.9"/>
	<rect x="412" y="257.6" width="10.9" height="32.7"/>
	<rect x="412" y="312.1" width="10.9" height="32.7"/>
	<rect x="412" y="377.5" width="10.9" height="21.8"/>
	<rect x="412" y="453.8" width="10.9" height="10.9"/>
	<rect x="412" y="486.5" width="10.9" height="10.9"/>
	<rect x="422.9" y="105" width="10.9" height="32.7"/>
	<rect x="422.9" y="148.6" width="10.9" height="10.9"/>
	<rect x="422.9" y="181.3" width="10.9" height="21.8"/>
	<rect x="422.9" y="214" width="10.9" height="32.7"/>
	<rect x="422.9" y="257.6" width="10.9" height="32.7"/>
	<rect x="422.9" y="312.1" width="10.9" height="76.3"/>
	<rect x="422.9" y="399.3" width="10.9" height="54.5"/>
	<rect x="422.9" y="475.6" width="10.9" height="32.7"/>
	<rect x="433.8" y="115.9" width="10.9" height="10.9"/>
	<rect x="433.8" y="148.6" width="10.9" height="32.7"/>
	<rect x="433.8" y="192.2" width="10.9" height="21.8"/>
	<rect x="433.8" y="235.8" width="10.9" height="21.8"/>
	<rect x="433.8" y="268.5" width="10.9" height="10.9"/>
	<rect x="433.8" y="290.3" width="10.9" height="21.8"/>
	<rect x="433.8" y="377.5" width="10.9" height="10.9"/>
	<rect x="433.8" y="410.2" width="10.9" height="10.9"/>
	<rect x="433.8" y="432" width="10.9" height="21.8"/>
	<rect x="433.8" y="475.6" width="10.9" height="10.9"/>
	<rect x="433.8" y="497.4" width="10.9" height="10.9"/>
	<rect x="444.7" y="105" width="10.9" height="10.9"/>
	<rect x="444.7" y="148.6" width="10.9" height="10.9"/>
	<rect x="444.7" y="181.3" width="10.9" height="54.5"/>
	<rect x="444.7" y="246.7" width="10.9" height="21.8"/>
	<rect x="444.7" y="279.4" width="10.9" height="10.9"/>
	<rect x="444.7" y="301.2" width="10.9" height="21.8"/>
	<rect x="444.7" y="333.9" width="10.9" height="21.8"/>
	<rect x="444.7" y="377.5" width="10.9" height="32.7"/>
	<rect x="444.7" y="421.1" width="10.9" height="21.8"/>
	<rect x="444.7" y="453.8" width="10.9" height="10.9"/>
	<rect x="444.7" y="497.4" width="10.9" height="10.9"/>
	<rect x="455.6" y="126.8" width="10.9" height="10.9"/>
	<rect x="455.6" y="148.6" width="10.9" height="10.9"/>
	<rect x="455.6" y="170.4" width="10.9" height="21.8"/>
	<rect x="455.6" y="203.1" width="10.9" height="43.6"/>
	<rect x="455.6" y="257.6" width="10.9" height="43.6"/>
	<rect x="455.6" y="312.1" width="10.9" height="21.8"/>
	<rect x="455.6" y="344.8" width="10.9" height="10.9"/>
	<rect x="455.6" y="366.6" width="10.9" height="10.9"/>
	<rect x="455.6" y="388.4" width="10.9" height="10.9"/>
	<rect x="455.6" y="410.2" width="10.9" height="10.9"/>
	<rect x="455.6" y="442.9" width="10.9" height="10.9"/>
	<rect x="455.6" y="497.4" width="10.9" height="10.9"/>
	<rect x="466.5" y="105" width="10.9" height="21.8"/>
	<rect x="466.5" y="137.7" width="10.9" height="32.7"/>
	<rect x="466.5" y="192.2" width="10.9" height="21.8"/>
	<rect x="466.5" y="246.7" width="10.9" height="10.9"/>
	<rect x="466.5" y="290.3" width="10.9" height="10.9"/>
	<rect x="466.5" y="333.9" width="10.9" height="10.9"/>
	<rect x="466.5" y="355.7" width="10.9" height="10.9"/>
	<rect x="466.5" y="432" width="10.9" height="21.8"/>
	<rect x="466.5" y="464.7" width="10.9" height="10.9"/>
	<rect x="477.4" y="105" width="10.9" height="43.6"/>
	<rect x="477.4" y="170.4" width="10.9" height="10.9"/>
	<rect x="477.4" y="192.2" width="10.9" height="10.9"/>
	<rect x="477.4" y="279.4" width="10.9" height="21.8"/>
	<rect x="477.4" y="333.9" width="10.9" height="65.4"/>
	<rect x="477.4" y="421.1" width="10.9" height="10.9"/>
	<rect x="477.4" y="453.8" width="10.9" height="10.9"/>
	<rect x="477.4" y="475.6" width="10.9" height="32.7"/>
	<rect x="488.3" y="105" width="10.9" height="10.9"/>
	<rect x="488.3" y="126.8" width="10.9" height="10.9"/>
	<rect x="488.3" y="148.6" width="10.9" height="10.9"/>
	<rect x="488.3" y="192.2" width="10.9" height="32.7"/>
	<rect x="488.3" y="235.8" width="10.9" height="32.7"/>
	<rect x="488.3" y="290.3" width="10.9" height="32.7"/>
	<rect x="488.3" y="333.9" width="10.9" height="32.7"/>
	<rect x="488.3" y="377.5" width="10.9" height="32.7"/>
	<rect x="488.3" y="486.5" width="10.9" height="21.8"/>
	<rect x="499.2" y="105" width="10.9" height="54.5"/>
	<rect x="499.2" y="170.4" width="10.9" height="10.9"/>
	<rect x="499.2" y="203.1" width="10.9" height="10.9"/>
	<rect x="499.2" y="268.5" width="10.9" height="10.9"/>
	<rect x="499.2" y="301.2" width="10.9" height="10.9"/>
	<rect x="499.2" y="323" width="10.9" height="21.8"/>
	<rect x="499.2" y="377.5" width="10.9" height="10.9"/>
	<rect x="499.2" y="399.3" width="10.9" height="76.3"/>
	<rect x="510.1" y="192.2" width="10.9" height="10.9"/>
	<rect x="510.1" y="214" width="10.9" height="10.9"/>
	<rect x="510.1" y="235.8" width="10.9" height="21.8"/>
	<rect x="510.1" y="279.4" width="10.9" height="10.9"/>
	<rect x="510.1" y="312.1" width="10.9" height="43.6"/>
	<rect x="510.1" y="366.6" width="10.9" height="21.8"/>
	<rect x="510.1" y="410.2" width="10.9" height="10.9"/>
	<rect x="510.1" y="453.8" width="10.9" height="43.6"/>
	<rect x="521" y="105" width="10.9" height="76.3"/>
	<rect x="521" y="192.2" width="10.9" height="10.9"/>
	<rect x="521" y="214" width="10.9" height="10.9"/>
	<rect x="521" y="235.8" width="10.9" height="10.9"/>
	<rect x="521" y="257.6" width="10.9" height="10.9"/>
	<rect x="521" y="279.4" width="10.9" height="10.9"/>
	<rect x="521" y="323" width="10.9" height="10.9"/>
	<rect x="521" y="344.8" width="10.9" height="10.9"/>
	<rect x="521" y="366.6" width="10.9" height="10.9"/>
	<rect x="521" y="410.2" width="10.9" height="10.9"/>
	<rect x="521" y="432" width="10.9" height="10.9"/>
	<rect x="521" y="453.8" width="10.9" height="32.7"/>
	<rect x="521" y="497.4" width="10.9" height="10.9"/>
	<rect x="531.9" y="105" width="10.9" height="10.9"/>
	<rect x="531.9" y="170.4" width="10.9" height="10.9"/>
	<rect x="531.9" y="192.2" width="10.9" height="21.8"/>
	<rect x="531.9" y="235.8" width="10.9" height="10.9"/>
	<rect x="531.9" y="257.6" width="10.9" height="21.8"/>
	<rect x="531.9" y="301.2" width="10.9" height="76.3"/>
	<rect x="531.9" y="399.3" width="10.9" height="21.8"/>
	<rect x="531.9" y="453.8" width="10.9" height="21.8"/>
	<rect x="531.9" y="497.4" width="10.9" height="10.9"/>
	<rect x="542.8" y="105" width="10.9" height="10.9"/>
	<rect x="542.8" y="126.8" width="10.9" height="32.7"/>
	<rect x="542.8" y="170.4" width="10.9" height="10.9"/>
	<rect x="542.8" y="192.2" width="10.9" height="32.7"/>
	<rect x="542.8" y="246.7" width="10.9" height="32.7"/>
	<rect x="542.8" y="290.3" width="10.9" height="32.7"/>
	<rect x="542.8" y="333.9" width="10.9" height="32.7"/>
	<rect x="542.8" y="377.5" width="10.9" height="21.8"/>
	<rect x="542.8" y="410.2" width="10.9" height="54.5"/>
	<rect x="542.8" y="486.5" width="10.9" height="10.9"/>
	<rect x="553.7" y="105" width="10.9" height="10.9"/>
	<rect x="553.7" y="126.8" width="10.9" height="32.7"/>
	<rect x="553.7" y="170.4" width="10.9" height="10.9"/>
	<rect x="553.7" y="192.2" width="10.9" height="10.9"/>
	<rect x="553.7" y="214" width="10.9" height="10.9"/>
	<rect x="553.7" y="246.7" width="10.9" height="21.8"/>
	<rect x="553.7" y="279.4" width="10.9" height="10.9"/>
	<rect x="553.7" y="323" width="10.9" height="10.9"/>
	<rect x="553.7" y="344.8" width="10.9" height="10.9"/>
	<rect x="553.7" y="366.6" width="10.9" height="10.9"/>
	<rect x="553.7" y="399.3" width="10.9" height="10.9"/>
	<rect x="553.7" y="442.9" width="10.9" height="32.7"/>
	<rect x="564.6" y="105" width="10.9" height="10.9"/>
	<rect x="564.6" y="126.8" width="10.9" height="32.7"/>
	<rect x="564.6" y="170.4" width="10.9" height="10.9"/>
	<rect x="564.6" y="224.9" width="10.9" height="21.8"/>
	<rect x="564.6" y="257.6" width="10.9" height="32.7"/>
	<rect x="564.6" y="312.1" width="10.9" height="21.8"/>
	<rect x="564.6" y="344.8" width="10.9" height="32.7"/>
	<rect x="564.6" y="399.3" width="10.9" height="21.8"/>
	<rect x="564.6" y="442.9" width="10.9" height="65.4"/>
	<rect x="575.5" y="105" width="10.9" height="10.9"/>
	<rect x="575.5" y="170.4" width="10.9" height="10.9"/>
	<rect x="575.5" y="203.1" width="10.9" height="10.9"/>
	<rect x="575.5" y="224.9" width="10.9" height="21.8"/>
	<rect x="575.5" y="290.3" width="10.9" height="10.9"/>
	<rect x="575.5" y="312.1" width="10.9" height="10.9"/>
	<rect x="575.5" y="366.6" width="10.9" height="10.9"/>
	<rect x="575.5" y="432" width="10.9" height="10.9"/>
	<rect x="575.5" y="464.7" width="10.9" height="43.6"/>
	<rect x="586.4" y="105" width="10.9" height="76.3"/>
	<rect x="586.4" y="192.2" width="10.9" height="10.9"/>
	<rect x="586.4" y="235.8" width="10.9" height="10.9"/>
	<rect x="586.4" y="279.4" width="10.9" height="10.9"/>
	<rect x="586.4" y="399.3" width="10.9" height="10.9"/>
	<rect x="586.4" y="442.9" width="10.9" height="21.8"/>
	<rect x="586.4" y="497.4" width="10.9" height="10.9"/>
</g>
</svg>
